<?xml version="1.0" encoding="iso-8859-1"?>
<!-- Generator: Adobe Illustrator 21.0.0, SVG Export Plug-In . SVG Version: 6.00 Build 0)  -->
<svg version="1.1" id="Capa_1" xmlns="http://www.w3.org/2000/svg" xmlns:xlink="http://www.w3.org/1999/xlink" x="0px" y="0px"
	 viewBox="0 0 511.997 511.997" style="enable-background:new 0 0 511.997 511.997;" xml:space="preserve">
<path style="fill:#CCCCCC;" d="M486.005,104.818v264.935l-231.149,15.606L25.984,369.753V104.818
	c0-13.849,11.228-25.077,25.077-25.077h409.867C474.777,79.741,486.005,90.969,486.005,104.818z"/>
<path style="fill:#ADADAD;" d="M460.928,79.741H333.071L207.888,369.753h278.116V104.818
	C486.005,90.969,474.777,79.741,460.928,79.741z"/>
<path style="fill:#808080;" d="M504.5,369.753v37.426c0,13.849-11.228,25.077-25.077,25.077H32.577
	c-13.849,0-25.077-11.228-25.077-25.077v-37.426h18.484h460.02H504.5z"/>
<path style="fill:#616161;" d="M501.524,369.753v26.358c0,13.849-11.228,25.077-25.077,25.077H29.601
	c-9.544,0-17.843-5.334-22.08-13.183c0.437,13.465,11.484,24.25,25.056,24.25h446.847c13.849,0,25.077-11.228,25.077-25.077v-37.426
	h-2.977V369.753z"/>
<path style="fill:#4D4D4D;" d="M187.157,369.753h137.675c0,17.237-13.975,31.211-31.211,31.211H218.38
	C201.143,400.964,187.157,386.99,187.157,369.753z"/>
<g style="opacity:0.2;">
	<path d="M187.263,372.22c-0.064-0.815-0.106-1.636-0.106-2.467h-0.948C186.528,370.592,186.875,371.417,187.263,372.22z"/>
</g>
<rect x="63.49" y="119" style="fill:#EBEBEB;" width="385.02" height="210.01"/>
<polygon style="fill:#CCCCCC;" points="225.476,329.008 448.51,329.008 448.51,118.998 316.126,118.998 "/>
<path d="M504.498,362.253h-10.992V104.82c0-17.963-14.614-32.577-32.576-32.577h-46.758c-4.142,0-7.5,3.358-7.5,7.5
	s3.358,7.5,7.5,7.5h46.758c9.691,0,17.576,7.885,17.576,17.577v257.433H33.492V104.82c0-9.692,7.885-17.577,17.577-17.577h333.239
	c4.142,0,7.5-3.358,7.5-7.5s-3.358-7.5-7.5-7.5H51.068c-17.963,0-32.577,14.614-32.577,32.577v257.433H7.5
	c-4.142,0-7.5,3.358-7.5,7.5v37.425c0,17.962,14.614,32.576,32.577,32.576h30.917c4.142,0,7.5-3.358,7.5-7.5s-3.358-7.5-7.5-7.5
	H32.577c-9.692,0-17.577-7.885-17.577-17.576v-29.925h10.992h154.41c3.503,17.769,19.198,31.214,37.979,31.214h75.237
	c18.781,0,34.476-13.445,37.979-31.214h154.409h10.992v29.925c0,9.691-7.885,17.576-17.576,17.576H93.852
	c-4.142,0-7.5,3.358-7.5,7.5s3.358,7.5,7.5,7.5h385.569c17.962,0,32.576-14.614,32.576-32.576v-37.425
	C511.998,365.611,508.64,362.253,504.498,362.253z M293.618,393.467H218.38c-10.455,0-19.345-6.804-22.492-16.214H316.11
	C312.963,386.663,304.073,393.467,293.618,393.467z"/>
<path d="M55.993,118.994v210.007c0,4.142,3.358,7.5,7.5,7.5h385.012c4.142,0,7.5-3.358,7.5-7.5V118.994c0-4.142-3.358-7.5-7.5-7.5
	H63.493C59.351,111.494,55.993,114.852,55.993,118.994z M70.993,126.494h370.012v195.007H70.993V126.494z"/>
<g>
</g>
<g>
</g>
<g>
</g>
<g>
</g>
<g>
</g>
<g>
</g>
<g>
</g>
<g>
</g>
<g>
</g>
<g>
</g>
<g>
</g>
<g>
</g>
<g>
</g>
<g>
</g>
<g>
</g>
</svg>
