<?xml version="1.0" encoding="iso-8859-1"?>
<!-- Generator: Adobe Illustrator 21.0.0, SVG Export Plug-In . SVG Version: 6.00 Build 0)  -->
<svg version="1.1" id="Capa_1" xmlns="http://www.w3.org/2000/svg" xmlns:xlink="http://www.w3.org/1999/xlink" x="0px" y="0px"
	 viewBox="0 0 512 512" style="enable-background:new 0 0 512 512;" xml:space="preserve">
<g>
	<path style="fill:#CCCCCC;" d="M408.391,52.243v19.386L265.419,93.57L103.611,71.629V52.243c0-24.716,20.038-44.743,44.768-44.743
		h215.244C388.339,7.5,408.391,27.527,408.391,52.243z"/>
	<path style="fill:#CCCCCC;" d="M408.391,437.699v22.058c0,24.716-20.051,44.743-44.768,44.743h-12.458H148.379
		c-24.73,0-44.768-20.027-44.768-44.743v-22.058l152.39-21.043L408.391,437.699z"/>
</g>
<rect x="103.611" y="71.63" style="fill:#4D4D4D;" width="304.78" height="366.07"/>
<polygon style="fill:#3B3B3B;" points="408.391,437.699 149.997,437.699 370.601,73.259 370.601,71.629 408.391,71.629 "/>
<g>
	<rect x="149.701" y="186.24" style="fill:#FFA638;" width="212.43" height="149.4"/>
	<polygon style="fill:#FFA638;" points="362.435,186.453 362.435,186.239 362.221,186.239 	"/>
	<polygon style="fill:#FFA638;" points="362.134,335.941 362.435,335.941 362.435,335.64 	"/>
	<polygon style="fill:#FFA638;" points="149.7,335.91 149.7,335.941 149.731,335.941 	"/>
</g>
<path d="M256.001,461.047c-6.279,0-11.389,5.109-11.389,11.389s5.109,11.389,11.389,11.389c6.28,0,11.389-5.109,11.389-11.389
	S262.28,461.047,256.001,461.047z M256.001,473.11c-0.372,0-0.674-0.303-0.674-0.675s0.302-0.675,0.674-0.675
	c0.372,0,0.674,0.303,0.674,0.675S256.373,473.11,256.001,473.11z"/>
<path d="M367.91,0h-13.409c-4.143,0-7.5,3.358-7.5,7.5s3.357,7.5,7.5,7.5h13.409c18.14,0,32.897,14.758,32.897,32.897v16.231
	H111.194V47.897c0-18.14,14.758-32.897,32.897-32.897h180.41c4.143,0,7.5-3.358,7.5-7.5s-3.357-7.5-7.5-7.5H144.092
	c-26.411,0-47.898,21.487-47.898,47.897v416.206c0,26.411,21.486,47.897,47.897,47.897h223.818
	c26.411,0,47.897-21.486,47.897-47.897V47.897C415.808,21.487,394.321,0,367.91,0z M367.91,497H144.092
	c-18.14,0-32.897-14.757-32.897-32.897V79.129h289.613v351.07H133.751c-4.143,0-7.5,3.358-7.5,7.5s3.357,7.5,7.5,7.5h267.057v18.904
	C400.808,482.243,386.05,497,367.91,497z"/>
<path d="M149.846,343.117h212.311c4.143,0,7.5-3.358,7.5-7.5V186.034c0-4.142-3.357-7.5-7.5-7.5H149.846c-4.143,0-7.5,3.358-7.5,7.5
	v149.583C142.346,339.759,145.703,343.117,149.846,343.117z M250.697,297.493c1.465,1.464,3.385,2.197,5.304,2.197
	s3.839-0.732,5.304-2.197l26.091-26.091l56.715,56.715H167.894l56.718-56.709L250.697,297.493z M298.002,260.795l56.654-56.654
	v113.308L298.002,260.795z M256.001,281.583l-88.048-88.049H344.05L256.001,281.583z M214.005,260.801l-56.66,56.651V204.141
	L214.005,260.801z"/>
<g>
</g>
<g>
</g>
<g>
</g>
<g>
</g>
<g>
</g>
<g>
</g>
<g>
</g>
<g>
</g>
<g>
</g>
<g>
</g>
<g>
</g>
<g>
</g>
<g>
</g>
<g>
</g>
<g>
</g>
</svg>
