<?xml version="1.0" encoding="iso-8859-1"?>
<!-- Generator: Adobe Illustrator 21.0.0, SVG Export Plug-In . SVG Version: 6.00 Build 0)  -->
<svg version="1.1" id="Capa_1" xmlns="http://www.w3.org/2000/svg" xmlns:xlink="http://www.w3.org/1999/xlink" x="0px" y="0px"
	 viewBox="0 0 512.001 512.001" style="enable-background:new 0 0 512.001 512.001;" xml:space="preserve">
<path style="fill:#CCCCCC;" d="M344.628,14.11H231.644H41.082c-19.104,0-34.58,15.476-34.58,34.58v11.082l27.185,197.01
	L6.502,452.226v11.082c0,19.104,15.476,34.58,34.58,34.58h1.925h301.62c19.105,0,34.58-15.476,34.58-34.58v-11.082l-30.335-195.443
	l30.335-197.01V48.691C379.209,29.586,363.732,14.11,344.628,14.11z"/>
<path style="fill:#ADADAD;" d="M344.628,14.11H233.048L44.427,497.888h300.201c19.105,0,34.58-15.476,34.58-34.58v-11.082V59.773
	V48.691C379.209,29.586,363.732,14.11,344.628,14.11z"/>
<rect x="6.502" y="59.773" style="fill:#4D4D4D;" width="372.705" height="392.456"/>
<polygon style="fill:#3B3B3B;" points="62.231,452.225 379.209,452.225 379.209,59.773 215.244,59.773 "/>
<polygon style="fill:#2B2B2B;" points="379.209,303.069 305.433,229.293 246.959,214.459 261.794,272.932 379.209,390.347 "/>
<polygon style="fill:#EBEBEB;" points="286.797,161.107 228.324,146.273 243.158,204.746 441.26,402.848 441.26,402.836 
	475.046,394.169 484.887,359.21 "/>
<path style="fill:#4D4D4D;" d="M494.488,368.811c12.046,12.046,12.046,31.581,0,43.627c-6.022,6.035-13.921,9.046-21.819,9.046
	s-15.797-3.011-21.819-9.046l-9.589-9.589v-0.012l43.627-43.627L494.488,368.811z"/>
<path d="M500.785,363.504L387.706,250.425V48.692c0-23.203-18.877-42.081-42.081-42.081H42.081C18.877,6.611,0,25.489,0,48.692
	v414.617c0,23.203,18.877,42.081,42.081,42.081H60.1c4.142,0,7.5-3.358,7.5-7.5c0-4.142-3.358-7.5-7.5-7.5h-18.02
	c-14.933-0.001-27.08-12.149-27.08-27.081v-3.582h357.705v3.582c0,14.932-12.148,27.08-27.08,27.08H90.586
	c-4.142,0-7.5,3.358-7.5,7.5c0,4.142,3.358,7.5,7.5,7.5h255.039c23.204,0,42.081-18.877,42.081-42.081v-87.541
	c0-4.142-3.358-7.5-7.5-7.5c-4.142,0-7.5,3.358-7.5,7.5v68.958H15.001V67.275h357.705v168.151l-79.616-79.616
	c-0.955-0.955-2.15-1.634-3.458-1.966l-58.467-14.835c-2.564-0.653-5.279,0.096-7.148,1.966c-1.87,1.87-2.617,4.585-1.966,7.148
	l14.835,58.467c0.332,1.309,1.011,2.504,1.966,3.458l207.695,207.696c7.478,7.478,17.297,11.215,27.12,11.215
	c9.82,0,19.644-3.739,27.12-11.215C515.739,402.789,515.739,378.457,500.785,363.504z M15.001,52.274v-3.582
	c0-14.932,12.147-27.08,27.08-27.08h303.544c14.933,0,27.08,12.147,27.08,27.08v3.582H15.001z M239.687,156.646l44.254,11.228
	l90.96,90.96c0.001,0.001,0.002,0.002,0.003,0.002l100.371,100.371l-33.026,33.026L250.915,200.9L239.687,156.646z M490.178,407.137
	c-9.105,9.104-23.921,9.104-33.026,0l-4.296-4.296l33.026-33.026l4.296,4.296C499.283,383.217,499.283,398.031,490.178,407.137z"/>
<g>
</g>
<g>
</g>
<g>
</g>
<g>
</g>
<g>
</g>
<g>
</g>
<g>
</g>
<g>
</g>
<g>
</g>
<g>
</g>
<g>
</g>
<g>
</g>
<g>
</g>
<g>
</g>
<g>
</g>
</svg>
